<svg width="40" height="39" viewBox="0 0 40 39" fill="none" xmlns="http://www.w3.org/2000/svg">
<g clip-path="url(#clip0_100_141)">
<path d="M9.03125 0C9.35448 0 9.66448 0.128404 9.89304 0.356964C10.1216 0.585524 10.25 0.895517 10.25 1.21875V2.4375H29.75V1.21875C29.75 0.895517 29.8784 0.585524 30.107 0.356964C30.3355 0.128404 30.6455 0 30.9688 0C31.292 0 31.602 0.128404 31.8305 0.356964C32.0591 0.585524 32.1875 0.895517 32.1875 1.21875V2.4375H34.625C35.9179 2.4375 37.1579 2.95111 38.0721 3.86535C38.9864 4.77959 39.5 6.01957 39.5 7.3125V34.125C39.5 35.4179 38.9864 36.6579 38.0721 37.5721C37.1579 38.4864 35.9179 39 34.625 39H5.375C4.08207 39 2.84209 38.4864 1.92785 37.5721C1.01361 36.6579 0.5 35.4179 0.5 34.125V7.3125C0.5 6.01957 1.01361 4.77959 1.92785 3.86535C2.84209 2.95111 4.08207 2.4375 5.375 2.4375H7.8125V1.21875C7.8125 0.895517 7.9409 0.585524 8.16946 0.356964C8.39802 0.128404 8.70802 0 9.03125 0ZM33.2941 7.3125H6.70344C5.97219 7.3125 5.375 7.8585 5.375 8.53125V10.9688C5.375 11.6415 5.96975 12.1875 6.70344 12.1875H33.2966C34.0278 12.1875 34.625 11.6415 34.625 10.9688V8.53125C34.625 7.8585 34.0303 7.3125 33.2941 7.3125ZM24.875 17.0625C24.2285 17.0625 23.6085 17.3193 23.1514 17.7764C22.6943 18.2335 22.4375 18.8535 22.4375 19.5C22.4375 20.1465 22.6943 20.7665 23.1514 21.2236C23.6085 21.6807 24.2285 21.9375 24.875 21.9375H37.0625V17.0625H24.875ZM15.125 26.8125C15.125 26.166 14.8682 25.546 14.4111 25.0889C13.954 24.6318 13.334 24.375 12.6875 24.375H2.9375V29.25H12.6875C13.334 29.25 13.954 28.9932 14.4111 28.5361C14.8682 28.079 15.125 27.459 15.125 26.8125Z" fill="#064673"/>
</g>
<defs>
<clipPath id="clip0_100_141">
<rect width="39" height="39" fill="white" transform="translate(0.5)"/>
</clipPath>
</defs>
</svg>
