<svg width="38" height="37" viewBox="0 0 38 37" fill="none" xmlns="http://www.w3.org/2000/svg">
<path d="M9.75 25.4375C9.75 24.8242 9.99364 24.236 10.4273 23.8023C10.861 23.3686 11.4492 23.125 12.0625 23.125C12.6758 23.125 13.264 23.3686 13.6977 23.8023C14.1314 24.236 14.375 24.8242 14.375 25.4375V27.75C14.375 28.3633 14.1314 28.9515 13.6977 29.3852C13.264 29.8189 12.6758 30.0625 12.0625 30.0625C11.4492 30.0625 10.861 29.8189 10.4273 29.3852C9.99364 28.9515 9.75 28.3633 9.75 27.75V25.4375ZM23.625 16.1875C23.625 15.5742 23.8686 14.986 24.3023 14.5523C24.736 14.1186 25.3242 13.875 25.9375 13.875C26.5508 13.875 27.139 14.1186 27.5727 14.5523C28.0064 14.986 28.25 15.5742 28.25 16.1875V27.75C28.25 28.3633 28.0064 28.9515 27.5727 29.3852C27.139 29.8189 26.5508 30.0625 25.9375 30.0625C25.3242 30.0625 24.736 29.8189 24.3023 29.3852C23.8686 28.9515 23.625 28.3633 23.625 27.75V16.1875ZM16.6875 20.8125C16.6875 20.1992 16.9311 19.611 17.3648 19.1773C17.7985 18.7436 18.3867 18.5 19 18.5C19.6133 18.5 20.2015 18.7436 20.6352 19.1773C21.0689 19.611 21.3125 20.1992 21.3125 20.8125V27.75C21.3125 28.3633 21.0689 28.9515 20.6352 29.3852C20.2015 29.8189 19.6133 30.0625 19 30.0625C18.3867 30.0625 17.7985 29.8189 17.3648 29.3852C16.9311 28.9515 16.6875 28.3633 16.6875 27.75V20.8125Z" fill="#064673"/>
<path d="M9.75 3.46875H7.4375C6.21087 3.46875 5.03449 3.95603 4.16713 4.82338C3.29978 5.69074 2.8125 6.86712 2.8125 8.09375V32.375C2.8125 33.6016 3.29978 34.778 4.16713 35.6454C5.03449 36.5127 6.21087 37 7.4375 37H30.5625C31.7891 37 32.9655 36.5127 33.8329 35.6454C34.7002 34.778 35.1875 33.6016 35.1875 32.375V8.09375C35.1875 6.86712 34.7002 5.69074 33.8329 4.82338C32.9655 3.95603 31.7891 3.46875 30.5625 3.46875H28.25V5.78125H30.5625C31.1758 5.78125 31.764 6.02489 32.1977 6.45857C32.6314 6.89224 32.875 7.48044 32.875 8.09375V32.375C32.875 32.9883 32.6314 33.5765 32.1977 34.0102C31.764 34.4439 31.1758 34.6875 30.5625 34.6875H7.4375C6.82419 34.6875 6.23599 34.4439 5.80232 34.0102C5.36864 33.5765 5.125 32.9883 5.125 32.375V8.09375C5.125 7.48044 5.36864 6.89224 5.80232 6.45857C6.23599 6.02489 6.82419 5.78125 7.4375 5.78125H9.75V3.46875Z" fill="#064673"/>
<path d="M22.4688 2.3125C22.7754 2.3125 23.0695 2.43432 23.2863 2.65116C23.5032 2.868 23.625 3.16209 23.625 3.46875V5.78125C23.625 6.08791 23.5032 6.382 23.2863 6.59884C23.0695 6.81568 22.7754 6.9375 22.4688 6.9375H15.5312C15.2246 6.9375 14.9305 6.81568 14.7137 6.59884C14.4968 6.382 14.375 6.08791 14.375 5.78125V3.46875C14.375 3.16209 14.4968 2.868 14.7137 2.65116C14.9305 2.43432 15.2246 2.3125 15.5312 2.3125H22.4688ZM15.5312 0C14.6113 0 13.729 0.365457 13.0785 1.01597C12.428 1.66649 12.0625 2.54878 12.0625 3.46875V5.78125C12.0625 6.70122 12.428 7.58351 13.0785 8.23403C13.729 8.88454 14.6113 9.25 15.5312 9.25H22.4688C23.3887 9.25 24.271 8.88454 24.9215 8.23403C25.572 7.58351 25.9375 6.70122 25.9375 5.78125V3.46875C25.9375 2.54878 25.572 1.66649 24.9215 1.01597C24.271 0.365457 23.3887 0 22.4688 0L15.5312 0Z" fill="#064673"/>
</svg>
