<svg width="32" height="31" viewBox="0 0 32 31" fill="none" xmlns="http://www.w3.org/2000/svg">
<path d="M16.3642 16.4688H14.0625V9.6875H16.3642C17.2635 9.6875 18.1259 10.0447 18.7618 10.6806C19.3976 11.3165 19.7549 12.1789 19.7549 13.0781C19.7549 13.9774 19.3976 14.8398 18.7618 15.4757C18.1259 16.1115 17.2635 16.4688 16.3642 16.4688Z" fill="#064673"/>
<path d="M8.25 0H23.75C24.7777 0 25.7633 0.408258 26.49 1.13496C27.2167 1.86166 27.625 2.84729 27.625 3.875V27.125C27.625 28.1527 27.2167 29.1383 26.49 29.865C25.7633 30.5917 24.7777 31 23.75 31H8.25C7.22229 31 6.23666 30.5917 5.50996 29.865C4.78326 29.1383 4.375 28.1527 4.375 27.125V3.875C4.375 2.84729 4.78326 1.86166 5.50996 1.13496C6.23666 0.408258 7.22229 0 8.25 0ZM14.0625 7.75C13.5486 7.75 13.0558 7.95413 12.6925 8.31748C12.3291 8.68083 12.125 9.17364 12.125 9.6875V22.2812C12.125 22.5382 12.2271 22.7846 12.4087 22.9663C12.5904 23.1479 12.8368 23.25 13.0938 23.25C13.3507 23.25 13.5971 23.1479 13.7788 22.9663C13.9604 22.7846 14.0625 22.5382 14.0625 22.2812V18.4062H16.3642C17.7774 18.4062 19.1326 17.8449 20.1318 16.8457C21.131 15.8465 21.6924 14.4912 21.6924 13.0781C21.6924 11.665 21.131 10.3098 20.1318 9.31057C19.1326 8.31135 17.7774 7.75 16.3642 7.75H14.0625Z" fill="#064673"/>
</svg>
