<svg width="41" height="41" viewBox="0 0 41 41" fill="none" xmlns="http://www.w3.org/2000/svg">
<g clip-path="url(#clip0_100_138)">
<path d="M28 15.5C28 17.4891 27.2098 19.3968 25.8033 20.8033C24.3968 22.2098 22.4891 23 20.5 23C18.5109 23 16.6032 22.2098 15.1967 20.8033C13.7902 19.3968 13 17.4891 13 15.5C13 13.5109 13.7902 11.6032 15.1967 10.1967C16.6032 8.79018 18.5109 8 20.5 8C22.4891 8 24.3968 8.79018 25.8033 10.1967C27.2098 11.6032 28 13.5109 28 15.5Z" fill="#064673"/>
<path fill-rule="evenodd" clip-rule="evenodd" d="M0.5 20.5C0.5 15.1957 2.60714 10.1086 6.35786 6.35786C10.1086 2.60714 15.1957 0.5 20.5 0.5C25.8043 0.5 30.8914 2.60714 34.6421 6.35786C38.3929 10.1086 40.5 15.1957 40.5 20.5C40.5 25.8043 38.3929 30.8914 34.6421 34.6421C30.8914 38.3929 25.8043 40.5 20.5 40.5C15.1957 40.5 10.1086 38.3929 6.35786 34.6421C2.60714 30.8914 0.5 25.8043 0.5 20.5ZM20.5 3C17.2044 3.00018 13.9759 3.93091 11.186 5.68507C8.3961 7.43923 6.15821 9.94553 4.72991 12.9155C3.30161 15.8854 2.74097 19.1983 3.1125 22.4729C3.48403 25.7474 4.77263 28.8505 6.83 31.425C8.605 28.565 12.5125 25.5 20.5 25.5C28.4875 25.5 32.3925 28.5625 34.17 31.425C36.2274 28.8505 37.516 25.7474 37.8875 22.4729C38.259 19.1983 37.6984 15.8854 36.2701 12.9155C34.8418 9.94553 32.6039 7.43923 29.814 5.68507C27.0241 3.93091 23.7956 3.00018 20.5 3Z" fill="#064673"/>
</g>
<defs>
<clipPath id="clip0_100_138">
<rect width="40" height="40" fill="white" transform="translate(0.5 0.5)"/>
</clipPath>
</defs>
</svg>
