<svg width="101" height="55" viewBox="0 0 101 55" fill="none" xmlns="http://www.w3.org/2000/svg">
<g clip-path="url(#clip0_25_79)">
<mask id="mask0_25_79" style="mask-type:luminance" maskUnits="userSpaceOnUse" x="0" y="0" width="101" height="55">
<path d="M0 54.5H101V0.5H0V54.5Z" fill="white"/>
</mask>
<g mask="url(#mask0_25_79)">
<path d="M63.7208 1.45943C62.1885 1.09802 60.6483 0.7553 59.0564 0.522417C58.9967 0.513201 58.9298 0.509465 58.8703 0.5C56.6088 2.17277 54.5257 4.0189 52.6511 6.00252C54.7267 5.69716 56.847 5.50338 59.0116 5.42517C66.5697 5.1477 73.7568 6.38833 80.2435 8.75204C75.5641 5.5238 69.9176 2.97927 63.7208 1.45943Z" fill="#F29100"/>
<path d="M60.3507 18.1251C68.9058 14.0812 77.8631 12.3731 86.3143 12.7457C79.0387 9.52691 70.688 7.83347 61.8609 8.15399C57.5091 8.31419 53.3057 8.95505 49.3255 10.0094C47.3392 12.6804 45.6988 15.5527 44.4526 18.5757C46.3721 20.4667 48.4663 22.247 50.7204 23.8884C53.6592 21.7108 56.8765 19.7697 60.3507 18.1251Z" fill="#F29100"/>
<path d="M49.3256 10.0093C46.0153 10.8847 42.8535 12.0469 39.8777 13.4626C42.8905 17.3073 46.5212 20.8335 50.7171 23.8884H50.7205C48.4664 22.2452 46.3722 20.4666 44.4526 18.5759C45.6988 15.5544 47.3394 12.682 49.3256 10.0093Z" fill="#F29100"/>
<path d="M50.7243 23.8902C48.4702 22.251 46.3719 20.4664 44.4526 18.5757C42.671 22.8936 41.7003 27.5187 41.6854 32.3173C44.2964 29.2455 47.3245 26.4143 50.7243 23.8902Z" fill="#F29100"/>
<path d="M93.2701 49.9923C93.1655 49.9946 93.0616 49.998 92.954 49.998C88.6128 49.998 85.4662 47.2152 85.4662 43.3817V43.296C85.4662 39.6284 88.6205 36.7561 92.645 36.7561C92.8607 36.7561 93.0693 36.7633 93.2701 36.7748V32.3691C93.0837 32.3617 92.8906 32.3617 92.697 32.3617C84.8112 32.3617 78.86 37.0951 78.86 43.3817V43.4619C78.86 49.5941 84.8931 54.3979 92.5966 54.3979C92.8309 54.3979 93.0466 54.3922 93.2701 54.3864V49.9923Z" fill="#F29100"/>
<path d="M13.5442 40.7606C8.89076 39.7663 8.23623 39.2893 8.23623 37.8161V37.7491C8.23623 36.6628 9.43018 35.7986 11.6972 35.7986C12.8539 35.7986 14.3644 36.1137 15.4246 36.5067V31.8084C14.4388 31.6373 12.925 31.4415 11.7756 31.4415C6.27408 31.4415 2.35521 34.1331 2.35521 38.2034V38.2649C2.35521 42.7149 5.8498 43.9629 11.2752 45.1159C15.7742 46.0771 16.1983 46.7177 16.1983 47.9676V48.031C16.1983 49.3441 14.7362 50.1435 12.313 50.1435C9.23673 50.1435 7.1982 49.0873 4.77671 47.4216L1.27466 50.9126C4.50539 53.3134 8.12107 54.5002 12.1976 54.5002C18.006 54.5002 22.0828 52.0023 22.0828 47.5506V47.4869C22.0828 43.5789 19.0028 41.9457 13.5442 40.7606Z" fill="#F29100"/>
<path d="M31.6049 34.6511C25.5645 34.6511 21.3459 38.9726 21.3459 44.2163V44.2833C21.3459 49.9064 25.9512 53.7809 32.1851 53.7809C32.3639 53.7809 32.9441 53.757 33.1227 53.753V49.5639C32.9739 49.5696 32.4159 49.5975 32.2599 49.5975C29.6263 49.5975 27.7698 48.3663 27.1862 45.9986H41.503C41.5366 45.5162 41.5774 45.2088 41.5774 44.693V44.6277C41.5774 39.4159 38.5312 34.6511 31.6049 34.6511ZM27.1119 42.7445C27.5764 40.3788 29.165 38.8328 31.6049 38.8328C34.0786 38.8328 35.6297 40.4107 35.9794 42.7445H27.1119Z" fill="#F29100"/>
<path d="M60.2468 43.7131C60.2468 38.7417 57.2115 34.8616 50.7914 34.8616C44.3635 34.8616 41.3282 38.7417 41.3282 43.7131V53.4424H47.2764V43.354C47.3841 41.5134 48.1055 39.3399 50.7914 39.3399C53.4693 39.3399 54.2506 41.5134 54.3549 43.354V53.4424H60.2468V43.7131Z" fill="#F29100"/>
<path d="M73.5327 46.9032C73.0206 49.5897 70.2517 49.9921 69.6242 50.0253C65.1462 50.2617 64.9872 47.1951 66.4926 46.2608C68.5162 45.0045 73.5507 45.7108 73.5507 45.7108C73.5507 45.8926 73.5985 46.3502 73.5327 46.9032ZM69.9183 34.7556C69.6577 34.7556 68.7576 34.7591 68.5114 34.7666V39.213C69.6577 39.224 71.2271 39.4175 71.9263 39.7866C72.9536 40.3284 73.4867 41.2412 73.5124 42.4776C72.111 42.313 70.5225 42.2009 69.1449 42.1656C63.5272 42.0211 60.7494 43.8816 60.1912 46.8595C60.1804 46.9151 60.1703 46.9716 60.1607 47.0284C60.1577 47.0476 60.1547 47.0668 60.1517 47.0862C60.1081 47.3707 60.083 47.6693 60.083 47.9861V48.0534C60.083 51.6931 63.2965 53.6804 67.2026 53.6804C70.0706 53.6804 72.0458 52.7511 73.4736 51.3466V53.4645H79.1648V42.6739C79.1648 37.7002 76.338 34.7556 69.9183 34.7556Z" fill="#F29100"/>
</g>
</g>
<defs>
<clipPath id="clip0_25_79">
<rect width="101" height="54" fill="white" transform="translate(0 0.5)"/>
</clipPath>
</defs>
</svg>
