<svg width="39" height="40" viewBox="0 0 39 40" fill="none" xmlns="http://www.w3.org/2000/svg">
<path d="M19.1433 39.6433C24.3141 39.7379 29.3108 37.7745 33.034 34.1851C36.7573 30.5956 38.9021 25.6741 38.9967 20.5033C39.0913 15.3324 37.1279 10.3358 33.5385 6.61251C29.949 2.88927 25.0275 0.744423 19.8567 0.649819C14.6858 0.555214 9.68918 2.5186 5.96594 6.10805C2.2427 9.6975 0.0978506 14.619 0.00324618 19.7898C-0.0913582 24.9607 1.87203 29.9574 5.46148 33.6806C9.05093 37.4038 13.9724 39.5487 19.1433 39.6433ZM10.9479 21.209C10.6247 21.2031 10.3171 21.0691 10.0928 20.8364C9.86841 20.6037 9.7457 20.2914 9.75161 19.9682C9.75753 19.645 9.89158 19.3374 10.1243 19.1131C10.357 18.8887 10.6693 18.766 10.9925 18.772L25.1105 19.0303L19.9738 13.7045C19.8626 13.5892 19.7751 13.453 19.7165 13.3039C19.6579 13.1547 19.6293 12.9955 19.6322 12.8353C19.6351 12.675 19.6696 12.5169 19.7336 12.37C19.7976 12.2231 19.89 12.0903 20.0053 11.9791C20.1207 11.8678 20.2569 11.7804 20.406 11.7218C20.5552 11.6632 20.7144 11.6346 20.8746 11.6375C21.0348 11.6404 21.1929 11.6749 21.3398 11.7389C21.4867 11.8029 21.6196 11.8953 21.7308 12.0106L28.9083 19.4557C29.0197 19.5709 29.1073 19.7071 29.166 19.8562C29.2247 20.0054 29.2535 20.1647 29.2505 20.3249C29.2476 20.4852 29.2131 20.6434 29.1489 20.7903C29.0848 20.9372 28.9923 21.07 28.8768 21.1811L21.4317 28.3586C21.1987 28.5833 20.886 28.7061 20.5624 28.7002C20.2389 28.6943 19.9309 28.5601 19.7062 28.3271C19.4816 28.0941 19.3588 27.7814 19.3647 27.4578C19.3706 27.1342 19.5048 26.8262 19.7378 26.6016L25.0659 21.4673L10.9479 21.209Z" fill="#064673"/>
</svg>
