<svg width="39" height="39" viewBox="0 0 39 39" fill="none" xmlns="http://www.w3.org/2000/svg">
<path d="M19.5 0C14.3283 0 9.36838 2.05446 5.71142 5.71142C2.05446 9.36838 0 14.3283 0 19.5C0 24.6717 2.05446 29.6316 5.71142 33.2886C9.36838 36.9455 14.3283 39 19.5 39C24.6717 39 29.6316 36.9455 33.2886 33.2886C36.9455 29.6316 39 24.6717 39 19.5C39 14.3283 36.9455 9.36838 33.2886 5.71142C29.6316 2.05446 24.6717 0 19.5 0ZM28.0312 18.2812C28.3545 18.2812 28.6645 18.4097 28.893 18.6382C29.1216 18.8668 29.25 19.1768 29.25 19.5C29.25 19.8232 29.1216 20.1332 28.893 20.3618C28.6645 20.5903 28.3545 20.7188 28.0312 20.7188H13.9108L19.1441 25.9496C19.2574 26.0629 19.3473 26.1975 19.4087 26.3455C19.47 26.4936 19.5015 26.6522 19.5015 26.8125C19.5015 26.9728 19.47 27.1314 19.4087 27.2795C19.3473 27.4275 19.2574 27.5621 19.1441 27.6754C19.0308 27.7887 18.8963 27.8786 18.7482 27.9399C18.6002 28.0012 18.4415 28.0328 18.2812 28.0328C18.121 28.0328 17.9623 28.0012 17.8143 27.9399C17.6662 27.8786 17.5317 27.7887 17.4184 27.6754L10.1059 20.3629C9.99238 20.2497 9.90233 20.1152 9.84089 19.9671C9.77945 19.819 9.74782 19.6603 9.74782 19.5C9.74782 19.3397 9.77945 19.181 9.84089 19.0329C9.90233 18.8848 9.99238 18.7503 10.1059 18.6371L17.4184 11.3246C17.6472 11.0958 17.9576 10.9672 18.2812 10.9672C18.6049 10.9672 18.9153 11.0958 19.1441 11.3246C19.373 11.5535 19.5015 11.8639 19.5015 12.1875C19.5015 12.5111 19.373 12.8215 19.1441 13.0504L13.9108 18.2812H28.0312Z" fill="#064673"/>
</svg>
