<svg width="26" height="26" viewBox="0 0 26 26" fill="none" xmlns="http://www.w3.org/2000/svg">
<path d="M17.5337 20.982L14.911 18.3576C13.8967 18.7203 12.8004 18.7874 11.7494 18.5513C10.6985 18.3151 9.73623 17.7854 8.97458 17.0238C8.21293 16.2621 7.68323 15.2999 7.4471 14.2489C7.21097 13.198 7.27812 12.1016 7.64075 11.0874L4.29325 7.73988C1.52425 10.2017 0 13 0 13C0 13 4.875 21.9375 13 21.9375C14.5608 21.9334 16.1041 21.6082 17.5337 20.982ZM8.46625 5.018C9.89594 4.39183 11.4392 4.06658 13 4.0625C21.125 4.0625 26 13 26 13C26 13 24.4741 15.7966 21.7084 18.2617L18.3576 14.911C18.7203 13.8967 18.7874 12.8004 18.5513 11.7494C18.3151 10.6985 17.7854 9.73623 17.0238 8.97458C16.2621 8.21293 15.2999 7.68323 14.2489 7.4471C13.198 7.21097 12.1016 7.27812 11.0874 7.64075L8.46625 5.018Z" fill="#F29100"/>
<path d="M8.97812 12.4248C8.88873 13.0493 8.94602 13.686 9.14543 14.2846C9.34485 14.8831 9.68092 15.4269 10.127 15.873C10.5731 16.3191 11.117 16.6552 11.7155 16.8546C12.314 17.054 12.9507 17.1113 13.5752 17.0219L8.97812 12.4248ZM17.0219 13.5753L12.4247 8.97656C13.0492 8.88717 13.686 8.94445 14.2845 9.14387C14.883 9.34329 15.4269 9.67936 15.873 10.1254C16.3191 10.5715 16.6551 11.1154 16.8546 11.7139C17.054 12.3124 17.1113 12.9492 17.0219 13.5737V13.5753ZM22.1747 23.3253L2.67474 3.8253L3.82524 2.6748L23.3252 22.1748L22.1747 23.3253Z" fill="#F29100"/>
</svg>
